<svg width="86" height="84" viewBox="0 0 86 84" fill="none" xmlns="http://www.w3.org/2000/svg">
<g filter="url(#filter0_d_78_16)">
<path d="M46.3667 5H33.6334V17.7333H46.3667V5Z" stroke="black" stroke-width="2" stroke-miterlimit="10"/>
<path d="M17.7333 5H5V17.7333H17.7333V5Z" stroke="black" stroke-width="2" stroke-miterlimit="10"/>
<path d="M75 5H62.2667V17.7333H75V5Z" stroke="black" stroke-width="2" stroke-miterlimit="10"/>
<path d="M46.3667 33.6333H33.6334V46.3667H46.3667V33.6333Z" stroke="black" stroke-width="2" stroke-miterlimit="10"/>
<path d="M17.7333 33.6333H5V46.3667H17.7333V33.6333Z" stroke="black" stroke-width="2" stroke-miterlimit="10"/>
<path d="M75 33.6333H62.2667V46.3667H75V33.6333Z" stroke="black" stroke-width="2" stroke-miterlimit="10"/>
<path d="M46.3667 62.2667H33.6334V75H46.3667V62.2667Z" stroke="black" stroke-width="2" stroke-miterlimit="10"/>
<path d="M17.7333 62.2667H5V75H17.7333V62.2667Z" stroke="black" stroke-width="2" stroke-miterlimit="10"/>
<path d="M75 62.2667H62.2667V75H75V62.2667Z" stroke="black" stroke-width="2" stroke-miterlimit="10"/>
</g>
<defs>
<filter id="filter0_d_78_16" x="0" y="0" width="90" height="88" filterUnits="userSpaceOnUse" color-interpolation-filters="sRGB">
<feFlood flood-opacity="0" result="BackgroundImageFix"/>
<feColorMatrix in="SourceAlpha" type="matrix" values="0 0 0 0 0 0 0 0 0 0 0 0 0 0 0 0 0 0 127 0" result="hardAlpha"/>
<feOffset dx="6" dy="4"/>
<feGaussianBlur stdDeviation="2"/>
<feComposite in2="hardAlpha" operator="out"/>
<feColorMatrix type="matrix" values="0 0 0 0 0 0 0 0 0 0 0 0 0 0 0 0 0 0 0.25 0"/>
<feBlend mode="normal" in2="BackgroundImageFix" result="effect1_dropShadow_78_16"/>
<feBlend mode="normal" in="SourceGraphic" in2="effect1_dropShadow_78_16" result="shape"/>
</filter>
</defs>
</svg>
